<?xml version="1.0" encoding="UTF-8"?>
<svg width="22.44mm" height="31.674mm" version="1.1" viewBox="0 0 22.44 31.674" xmlns="http://www.w3.org/2000/svg" xmlns:cc="http://creativecommons.org/ns#" xmlns:dc="http://purl.org/dc/elements/1.1/" xmlns:rdf="http://www.w3.org/1999/02/22-rdf-syntax-ns#">
 <metadata>
  <rdf:RDF>
   <cc:Work rdf:about="">
    <dc:format>image/svg+xml</dc:format>
    <dc:type rdf:resource="http://purl.org/dc/dcmitype/StillImage"/>
    <dc:title/>
   </cc:Work>
  </rdf:RDF>
 </metadata>
 <g transform="translate(-8.5035 -9.9951)">
  <g transform="matrix(.35278 0 0 -.35278 10.591 9.9951)">
   <path d="m0 0h4.047v-3.998h3.702v3.998h4.047v-12.107h-4.047v4.054h-3.702v-4.054h-4.047z" fill="#e54f26"/>
  </g>
  <g transform="matrix(.35278 0 0 -.35278 16.63 11.412)">
   <path d="m0 0h-3.563v4.015h11.174v-4.015h-3.564v-8.092h-4.047z" fill="#e54f26"/>
  </g>
  <g transform="matrix(.35278 0 0 -.35278 19.941 9.9951)">
   <path d="m0 0h4.22l2.595-4.254 2.593 4.254h4.221v-12.107h-4.029v6.001l-2.785-4.305h-0.069l-2.787 4.305v-6.001h-3.959z" fill="#e54f26"/>
  </g>
  <g transform="matrix(.35278 0 0 -.35278 25.46 9.9951)">
   <path d="m0 0h4.048v-8.105h5.691v-4.002h-9.739z" fill="#e54f26"/>
  </g>
  <g transform="matrix(.35278 0 0 -.35278 26.684 21.656)">
   <path d="m0 0-0.363-4.037-0.159-1.79h-30.474l0.728-8.154h29.021l-0.194-2.139-1.872-20.964-0.12-1.346-16.297-4.517v-1e-3l-0.037-0.01-16.312 4.528-1.115 12.504h7.993l0.567-6.351 8.869-2.395 7e-3 2e-3v1e-3l8.882 2.397 0.924 10.327h-27.598l-1.958 21.945-0.19 2.136h39.888zm-51.535 15.409 5.789-64.929 25.977-7.211 26.048 7.221 5.796 64.919z" fill="#e54f26"/>
  </g>
  <g transform="matrix(.35278 0 0 -.35278 -171.4 -29.765)">
   <path d="m0 0h9.919v-4.148h-5.771v-4.148h5.771v-4.148h-9.919z" fill="#0c73b8"/>
  </g>
  <g transform="matrix(.35278 0 0 -.35278 -167.2 -29.765)">
   <path d="m0 0h9.919v-3.607h-5.771v-0.721h5.771v-8.297h-9.919v3.788h5.771v0.721h-5.771z" fill="#0c73b8"/>
  </g>
  <g transform="matrix(.35278 0 0 -.35278 -163 -29.765)">
   <path d="m0 0h9.92v-3.607h-5.772v-0.721h5.772v-8.297h-9.92v3.788h5.771v0.721h-5.771z" fill="#0c73b8"/>
  </g>
  <g transform="matrix(.35278 0 0 -.35278 -158.58 -12.7)">
   <path d="m0 0-0.2-2.199-1.924-21.561-0.124-1.384-16.761-4.646v-1e-3l-0.038-0.01-16.776 4.657-1.147 12.859h8.221l0.583-6.531 9.121-2.463 8e-3 2e-3 9.134 2.465 0.951 10.622h-28.384l-0.734 8.19h29.828l0.745 8.386h-31.304l-0.744 8.19h41.024zm-51.719 30.226 5.954-66.776 26.716-7.416 26.79 7.426 5.96 66.766z" fill="#0c73b8"/>
  </g>
  <g transform="matrix(.35278 0 0 -.35278 -140.02 118.13)">
   <path d="m0 0-3.489-4.431c-4.471-6.425-3.916-14.789-0.5-21.619 0.081-0.162 0.17-0.323 0.254-0.484 0.054-0.103 0.098-0.205 0.153-0.305l0.102-0.179c0.058-0.108 0.119-0.208 0.178-0.314 0.108-0.188 0.22-0.374 0.331-0.56 0.062-0.102 0.116-0.203 0.179-0.305 0.124-0.199 0.253-0.398 0.381-0.595l0.161-0.246c0.18-0.266 0.365-0.527 0.552-0.789l9e-3 -0.026 0.093-0.127c0.163-0.224 0.332-0.443 0.501-0.662l0.187-0.237c0.151-0.191 0.31-0.38 0.467-0.569l0.17-0.213c0.21-0.247 0.426-0.489 0.645-0.73l0.042-0.042c0.213-0.233 0.433-0.46 0.653-0.688l0.204-0.212c0.173-0.172 0.351-0.34 0.526-0.509l0.213-0.203c0.235-0.222 0.469-0.442 0.713-0.654l0.017-9e-3 0.118-0.11c0.214-0.184 0.434-0.363 0.654-0.543l0.263-0.213c0.178-0.142 0.36-0.285 0.543-0.424l0.289-0.221c0.201-0.148 0.407-0.299 0.611-0.441l0.221-0.153 0.059-0.042c0.195-0.133 0.396-0.262 0.594-0.391l0.255-0.17c0.304-0.192 0.613-0.384 0.925-0.568l0.255-0.144c0.23-0.132 0.454-0.265 0.687-0.391 0.127-0.068 0.263-0.129 0.391-0.195 0.165-0.087 0.324-0.17 0.492-0.255l0.119-0.059 0.195-0.094c0.261-0.124 0.525-0.247 0.79-0.364l0.17-0.077c0.302-0.133 0.607-0.26 0.916-0.382l0.221-0.085c0.286-0.11 0.575-0.221 0.865-0.323l0.111-0.042c0.32-0.111 0.643-0.213 0.968-0.314l0.229-0.068c0.33-0.1 0.653-0.217 0.993-0.28 21.623-3.944 27.909 12.995 27.909 12.995-5.274-6.873-14.639-8.689-23.512-6.671-0.337 0.076-0.666 0.184-0.993 0.28l-0.247 0.076c-0.319 0.098-0.635 0.197-0.95 0.306l-0.128 0.051c-0.282 0.099-0.563 0.206-0.84 0.314l-0.238 0.093c-0.305 0.121-0.609 0.243-0.908 0.374l-0.186 0.076c-0.258 0.117-0.509 0.235-0.765 0.356l-0.22 0.111c-0.199 0.096-0.39 0.195-0.586 0.297-0.133 0.068-0.268 0.141-0.399 0.212-0.239 0.13-0.478 0.263-0.713 0.399l-0.237 0.127c-0.314 0.184-0.621 0.376-0.926 0.569l-0.246 0.17c-0.22 0.143-0.444 0.284-0.662 0.433l-0.204 0.153c-0.212 0.148-0.423 0.296-0.627 0.449l-0.272 0.204c-0.188 0.144-0.375 0.292-0.56 0.442l-0.255 0.203c-0.237 0.194-0.465 0.386-0.696 0.586l-0.076 0.059c-0.249 0.219-0.497 0.447-0.739 0.671l-0.204 0.203c-0.178 0.171-0.352 0.343-0.526 0.519l-0.212 0.203c-0.22 0.226-0.435 0.456-0.646 0.688l-0.033 0.034c-0.223 0.244-0.44 0.494-0.654 0.746l-0.169 0.204c-0.161 0.193-0.321 0.39-0.476 0.586l-0.17 0.212c-0.187 0.241-0.375 0.486-0.551 0.73-4.926 6.719-6.697 15.988-2.759 23.597m13.029 4.711-2.64-3.726c-3.233-4.653-3.056-10.884-0.535-15.805 0.424-0.826 0.897-1.622 1.427-2.385 0.484-0.694 1.03-1.523 1.672-2.08 0.234-0.257 0.474-0.508 0.721-0.756l0.196-0.186c0.24-0.234 0.484-0.463 0.738-0.688l0.034-0.034c0.28-0.245 0.571-0.479 0.866-0.713l0.195-0.152c0.296-0.227 0.599-0.451 0.908-0.663l0.026-0.025c0.135-0.094 0.278-0.182 0.415-0.271l0.196-0.128c0.221-0.141 0.444-0.276 0.67-0.407l0.094-0.06c0.196-0.111 0.394-0.223 0.594-0.331l0.212-0.11c0.139-0.071 0.276-0.143 0.416-0.212l0.059-0.034c0.285-0.141 0.574-0.271 0.866-0.399l0.195-0.076c0.235-0.099 0.466-0.199 0.705-0.289 0.101-0.038 0.203-0.074 0.305-0.11 0.216-0.081 0.435-0.156 0.654-0.23 0.099-0.031 0.199-0.062 0.297-0.093 0.311-0.097 0.619-0.218 0.942-0.271 16.695-2.767 20.55 10.083 20.55 10.083-3.474-5.005-10.204-7.39-17.384-5.525-0.319 0.083-0.638 0.172-0.95 0.271l-0.28 0.093c-0.222 0.073-0.443 0.151-0.662 0.23-0.1 0.037-0.198 0.072-0.298 0.11-0.239 0.091-0.479 0.189-0.712 0.288l-0.196 0.077c-0.292 0.129-0.58 0.266-0.866 0.407-0.147 0.072-0.296 0.147-0.441 0.221l-0.246 0.127c-0.187 0.102-0.378 0.208-0.56 0.314l-0.128 0.077c-0.226 0.133-0.45 0.266-0.67 0.407l-0.204 0.136c-0.145 0.095-0.291 0.192-0.433 0.289-0.309 0.212-0.605 0.437-0.9 0.662l-0.203 0.152c-3.144 2.48-5.639 5.875-6.824 9.72-1.242 3.988-0.972 8.462 1.179 12.095m10.458 2.283-1.426-1.96c-1.907-2.805-2.087-6.29-0.765-9.388 1.394-3.288 4.246-5.874 7.58-7.096 0.138-0.052 0.278-0.098 0.416-0.145l0.187-0.059c0.198-0.061 0.391-0.131 0.594-0.17 9.219-1.78 11.719 4.727 12.385 5.687-2.191-3.154-5.874-3.906-10.39-2.809-0.355 0.085-0.745 0.21-1.087 0.331-0.442 0.158-0.876 0.339-1.298 0.543-0.803 0.385-1.566 0.857-2.275 1.392-4.041 3.066-6.557 8.91-3.921 13.674" fill="#106baf"/>
  </g>
  <g transform="matrix(.35278 0 0 -.35278 -152.12 139.54)">
   <path d="m0 0c-0.253 0-0.504-0.204-0.56-0.452l-0.71-3.143-0.711-3.143c-0.056-0.247-0.145-0.655-0.197-0.903l-0.683-3.209-0.682-3.209c-0.053-0.247-0.163-0.649-0.245-0.889 0 0-0.943-2.808-2.531-2.776-0.067 2e-3 -0.132-2e-3 -0.198 0-0.767 0.014-1.374 0.028-1.374 0.028-0.253 4e-3 -0.505-0.196-0.564-0.442l-0.527-2.202-0.522-2.202c-0.059-0.246 0.101-0.452 0.353-0.457 0.899-0.01 2.914-0.033 4.135-0.033 3.965 0 6.057 2.2 7.397 8.521l1.567 7.256 1.472 6.803c0.055 0.248-0.113 0.452-0.367 0.452zm67.016 1.755c2.845 0 3.397-1.387 3.204-2.95-0.034-0.272-0.284-0.475-0.536-0.475h-6.913c-0.238 0-0.364 0.162-0.329 0.362l5e-3 0.014 5e-3 0.024s9e-3 0.048 0.028 0.117c0.66 1.756 2.008 2.908 4.536 2.908m14.298 4.668c-0.253 0-0.507-0.204-0.559-0.452l-0.184-0.88-0.221-1.045-0.061-0.291-1.901-8.902-1.807-8.456c-0.053-0.248-0.068-0.553-0.038-0.677 0.031-0.124 0.514-0.221 0.768-0.221h3.811c0.254 0 0.572 0.043 0.71 0.099 0.139 0.056 0.345 0.555 0.396 0.804l0.677 3.346 0.678 3.35v5e-3l0.089 0.446 0.823 3.849 0.725 3.397c0.053 0.247 0.302 0.447 0.555 0.447l11.984 5e-3c0.253 1e-3 0.411 0.204 0.353 0.452l-0.207 0.865-0.207 0.885-0.108 0.452c-0.411 1.595-1.614 2.512-4.23 2.512l-4.075 5e-3 -3.75 5e-3zm-43.235 0.052c-0.254 0-0.504-0.205-0.555-0.452l-1.007-4.781-1.012-4.78v-5e-3l-0.094-0.447c-1.161-5.299-0.851-10.353 5.458-10.511 0.103-3e-3 0.184 0 0.184 0h9.899c0.254 0 0.503 0.203 0.555 0.452l2.137 10.036 2.136 10.036c0.052 0.248-0.113 0.452-0.367 0.452h-4.564c-0.254 0-0.506-0.205-0.56-0.452l-1.619-7.496-1.623-7.5c-0.053-0.247-0.302-0.451-0.555-0.451h-3.233c-3.197 0-2.829 2.212-2.174 5.241l0.019 0.09 0.071 0.385 0.014 0.071 0.146 0.777 0.155 0.832c0.048 0.251 0.123 0.621 0.17 0.852l0.738 3.599 0.734 3.6c0.051 0.248-0.113 0.452-0.367 0.452zm-36.582 0.056c-0.254 0-0.509-0.205-0.565-0.452l-0.475-2.098-0.476-2.099c-0.056-0.246 0.104-0.451 0.358-0.451h5.053c0.254 0 0.506 0.204 0.56 0.451l0.461 2.099 0.462 2.098c0.054 0.248-0.109 0.452-0.363 0.452zm20.09 0.075c4.954 0.143 5.926-3.541 4.668-7.773l-0.127-0.442v-5e-3l-0.993-3.529-0.997-3.528c-0.07-0.244-0.334-0.448-0.589-0.448h-5.269c-4.001 0-4.979 3.13-4.005 7.745 0.974 4.72 2.886 7.655 6.823 7.952 0.168 0.013 0.33 0.024 0.489 0.028m46.605 0.174c-8.873 0-10.974-5.386-12.153-10.822-1.18-5.54-1.08-10.718 8.102-10.718h1.459c0.363 1e-3 0.731 4e-3 1.101 5e-3h0.018c2.426 9e-3 4.854 0.029 5.84 0.037 0.252 4e-3 0.498 0.206 0.55 0.452l0.371 1.816 0.076 0.353 0.442 2.169c0.051 0.248-0.118 0.452-0.372 0.452h-8.252c-3.283 0-4.26 0.87-3.901 3.435h13.207c0.21 3e-3 0.403 0.151 0.48 0.343l0.033 0.113h-5e-3c1.96 7.39 1.397 12.365-6.996 12.365m46.793 2.753-1.449-0.01c-0.254-2e-3 -0.669-4e-3 -0.923-4e-3h-3.834c-0.254 0-0.577-0.172-0.72-0.381l-8.484-12.422c-0.143-0.21-0.305-0.181-0.362 0.066l-0.621 2.738c-0.056 0.248-0.311 0.447-0.565 0.447h-5.453c-0.254 0-0.403-0.198-0.334-0.442l2.442-8.559c0.069-0.244 0.077-0.644 0.014-0.889l-1.068-4.14c-0.064-0.248 0.095-0.448 0.348-0.448h5.388c0.253 0 0.515 0.2 0.578 0.448l1.064 4.14c0.062 0.245 0.237 0.611 0.39 0.814l13.772 18.275c0.153 0.202 0.07 0.368-0.183 0.367m-92.654 2.583c-8.977 0-12.877-6.464-14.365-13.49-1.487-7.077 0.462-13.282 9.387-13.23l7.043 0.023 6.578 0.023c0.254 2e-3 0.514 0.203 0.579 0.447l1.148 4.376c0.064 0.246-0.095 0.446-0.348 0.447l-1.097 5e-3 -1.101 9e-3c-0.215 2e-3 -0.336 0.14-0.31 0.325l0.028 0.103s2.484 6.036 3.049 9.524c0.769 4.668-1.564 11.438-10.591 11.438" fill="#585858"/>
  </g>
  <g transform="matrix(.35278 0 0 -.35278 -72.412 -6.6125)">
   <path d="m0 0-16.654-4.729-16.654 4.729-1.175 12.672h8.225l0.543-6.341 9.061-2.611 8.924 2.572 0.913 10.479h-27.977l-0.048-0.156 2.289 24.773h32.935l1.809-12.972h-8.298l-0.304 4.747h-19.46l-0.378-8.293h28.541zm-16.654 54.895h-32.541l6.098-66.16 26.443-7.496 26.433 7.496 6.108 66.16z" fill="#e7a020"/>
  </g>
  <g transform="matrix(.35278 0 0 -.35278 -80.522 -29.421)">
   <path d="m0 0h-5.787v-4.156h9.934v12.352h-4.147z" fill="#e7a020"/>
  </g>
  <g transform="matrix(.35278 0 0 -.35278 -74.012 -32.29)">
   <path d="m0 0h-10.095v-4.326c1.35-1.35 2.055-1.997 4.009-3.95-1.143 0-4.009-4e-3 -4.009-4e-3v-3.946h10.095v3.947l-4.032 3.953h4.032z" fill="#e7a020"/>
  </g>
  <g transform="matrix(.35278 0 0 -.35278 -143.55 193.6)">
   <path d="m0 0c-0.602-0.031-1.475-0.118-2.346-0.108-0.612 7e-3 -0.834-0.234-0.947-0.817-0.845-4.32-1.714-8.636-2.596-12.948-0.152-0.74 0.033-1.057 0.836-1.05 2.576 0.022 5.144 0.125 7.648 0.785 1.259 0.331 2.3 1.045 2.967 2.191 1.557 2.676 2.196 5.573 1.912 8.648-0.121 1.312-0.819 2.191-2.171 2.592-1.653 0.491-3.349 0.504-5.303 0.707m-15.862-28.496c0.976 1.767 1 3.78 1.39 5.685 1.84 8.973 3.585 17.965 5.338 26.956 0.193 0.989 0.555 1.407 1.683 1.381 3.888-0.089 7.779-0.029 11.668-0.038 2.256-5e-3 4.458-0.273 6.436-1.486 2.792-1.712 3.953-4.364 4.002-7.482 0.087-5.622-1.764-10.46-6.167-14.162-2.403-2.02-5.313-2.495-8.289-2.663-2.084-0.116-4.18-0.078-6.27-0.03-0.827 0.019-1.186-0.19-1.336-1.063-0.416-2.436-0.992-4.843-1.409-7.279-0.138-0.8-0.424-1.045-1.213-1.022-1.943 0.055-3.888 0.029-5.833 0.035z" fill="#6182b8"/>
  </g>
  <g transform="matrix(.35278 0 0 -.35278 -124.02 198.84)">
   <path d="m0 0c0.728 0.035 1.461 0.022 2.18 0.115 2.659 0.344 5.396 0.575 6.761 3.45 1.164 2.45 1.76 5.03 1.554 7.746-0.113 1.48-0.819 2.503-2.395 2.886-2.53 0.616-5.077 0.686-7.654 0.547-0.606-0.032-0.645-0.37-0.738-0.841-0.74-3.753-1.535-7.495-2.27-11.249-0.569-2.91-0.542-2.916 2.562-2.654m-12.836-14.825c2.267 11.463 4.508 22.766 6.73 34.074 0.169 0.864 0.561 1.138 1.461 1.125 3.936-0.058 7.873-0.025 11.81-0.025 1.413 0 2.823-0.091 4.183-0.479 3.679-1.05 6.008-4.022 6.232-7.88 0.215-3.721-0.507-7.229-2.408-10.461-2.68-4.556-6.664-6.908-11.958-6.993-2.137-0.034-4.276-0.055-6.414-0.016-0.781 0.013-1.064-0.207-1.2-1.02-0.401-2.387-0.993-4.741-1.391-7.128-0.165-0.984-0.554-1.261-1.512-1.22-1.791 0.077-3.587 0.023-5.533 0.023" fill="#6182b8"/>
  </g>
  <g transform="matrix(.35278 0 0 -.35278 -133.3 188.33)">
   <path d="m0 0c-0.572-2.792-1.094-5.495-1.692-8.182-0.226-1.012 0.012-1.287 1.078-1.29 3.147-8e-3 6.32 0.324 9.417-0.604 3.638-1.09 5.237-3.39 4.57-7.119-1.042-5.82-2.261-11.608-3.363-17.418-0.113-0.59-0.362-0.684-0.856-0.681-1.991 0.013-3.982 5e-3 -6.141 5e-3 0.824 4.105 1.637 8.111 2.431 12.121 0.31 1.568 0.665 3.137 0.848 4.722 0.237 2.067-0.673 3.154-2.754 3.274-1.94 0.111-3.892 0.015-5.835 0.083-0.779 0.028-0.812-0.404-0.923-0.965-1.212-6.084-2.468-12.158-3.645-18.248-0.152-0.784-0.372-1.037-1.163-1.006-1.554 0.063-3.116 0.088-4.667-5e-3 -1.037-0.063-1.09 0.346-0.921 1.177 1.183 5.795 2.335 11.597 3.502 17.395 1.042 5.178 2.123 10.349 3.107 15.538 0.187 0.981 0.548 1.263 1.503 1.224 1.794-0.073 3.592-0.021 5.504-0.021" fill="#6182b8"/>
  </g>
  <g transform="matrix(.35278 0 0 -.35278 56.627 -65.747)">
   <path d="m0 0c1.679 0 3.037-1.357 3.037-3.036 0-1.68-1.358-3.037-3.037-3.037-1.68 0-3.037 1.357-3.037 3.037 0 1.679 1.357 3.036 3.037 3.036m9.307 5.344c-17.688 0-16.583-7.671-16.583-7.671l0.02-7.946h16.879v-2.386h-23.584s-11.318 1.283-11.318-16.564c0-17.846 9.879-17.214 9.879-17.214h5.896v8.282s-0.318 9.879 9.721 9.879h16.741s9.406-0.152 9.406 9.09v15.282s1.428 9.248-17.057 9.248" fill="#4381b1"/>
  </g>
  <g transform="matrix(.35278 0 0 -.35278 63.371 -45.066)">
   <path d="m0 0c-1.68 0-3.037 1.357-3.037 3.036 0 1.68 1.357 3.037 3.037 3.037 1.679 0 3.036-1.357 3.036-3.037 0-1.679-1.357-3.036-3.036-3.036m-9.308-5.344c17.688 0 16.583 7.67 16.583 7.67l-0.019 7.947h-16.879v2.386h23.583s11.318-1.284 11.318 16.564c0 17.846-9.879 17.214-9.879 17.214h-5.895v-8.282s0.318-9.879-9.721-9.879h-16.741s-9.406 0.152-9.406-9.09v-15.282s-1.428-9.248 17.056-9.248" fill="#e09e19"/>
  </g>
  <g transform="matrix(.35278 0 0 -.35278 150.06 -42.592)">
   <path d="m0 0c-0.407 0-0.812 0.106-1.168 0.312l-3.716 2.2c-0.554 0.31-0.284 0.42-0.101 0.483 0.74 0.259 0.89 0.318 1.68 0.767 0.083 0.047 0.192 0.03 0.277-0.02l2.854-1.694c0.104-0.056 0.25-0.056 0.346 0l11.131 6.425c0.102 0.058 0.17 0.178 0.17 0.3v12.845c0 0.128-0.068 0.242-0.172 0.307l-11.127 6.42c-0.104 0.06-0.239 0.06-0.343 0l-11.124-6.42c-0.108-0.062-0.177-0.181-0.177-0.304v-12.845c0-0.122 0.067-0.239 0.173-0.297l3.048-1.761c1.655-0.828 2.667 0.147 2.667 1.128v12.677c0 0.181 0.142 0.321 0.323 0.321h1.409c0.176 0 0.321-0.14 0.321-0.321v-12.682c0-2.207-1.203-3.475-3.296-3.475-0.644 0-1.151 0-2.567 0.696l-2.92 1.683c-0.721 0.418-1.167 1.198-1.167 2.031v12.845c0 0.836 0.446 1.616 1.167 2.028l11.143 6.428c0.705 0.399 1.641 0.399 2.341 0l11.128-6.431c0.719-0.415 1.167-1.192 1.167-2.028v-12.845c0-0.833-0.448-1.61-1.167-2.028l-11.128-6.428c-0.358-0.206-0.761-0.311-1.174-0.311" fill="#87c540"/>
  </g>
  <g transform="matrix(.35278 0 0 -.35278 156.93 -50.462)">
   <path d="m0 0c0-1.182-0.967-2.146-2.146-2.146-1.17 0-2.145 0.954-2.145 2.146 0 1.215 0.997 2.146 2.145 2.146 1.157 0 2.143-0.934 2.143-2.146m-3.94 6e-3c0-0.998 0.805-1.806 1.795-1.806 0.997 0 1.802 0.825 1.802 1.806 0 1-0.816 1.794-1.805 1.794-0.976 0-1.794-0.782-1.794-1.791m0.997 1.195h0.827c0.284 0 0.842 0 0.842-0.636 0-0.442-0.284-0.535-0.454-0.59 0.331-0.022 0.353-0.24 0.398-0.546 0.023-0.193 0.059-0.524 0.125-0.635h-0.51c-0.013 0.111-0.092 0.724-0.092 0.758-0.033 0.135-0.081 0.203-0.251 0.203h-0.419v-0.964h-0.466zm0.454-1.054h0.373c0.307 0 0.365 0.215 0.365 0.34 0 0.329-0.225 0.329-0.35 0.329h-0.385zm-13.542-13.608c-4.87 0-5.892 2.235-5.892 4.11 0 0.179 0.145 0.321 0.323 0.321h1.438c0.158 0 0.292-0.116 0.317-0.273 0.218-1.465 0.864-2.203 3.809-2.203 2.347 0 3.344 0.529 3.344 1.774 0 0.715-0.284 1.248-3.929 1.605-3.048 0.301-4.932 0.972-4.932 3.41 0 2.245 1.895 3.583 5.069 3.583 3.563 0 5.33-1.237 5.552-3.895 9e-3 -0.092-0.025-0.181-0.085-0.248-0.062-0.064-0.149-0.103-0.238-0.103h-1.446c-0.15 0-0.281 0.106-0.312 0.25-0.348 1.541-1.189 2.034-3.477 2.034-2.561 0-2.859-0.891-2.859-1.559 0-0.812 0.351-1.048 3.806-1.505 3.422-0.454 5.046-1.095 5.046-3.5 0-2.424-2.022-3.815-5.55-3.815" fill="#87c540"/>
  </g>
  <g transform="matrix(.35278 0 0 -.35278 171.8 -58.657)">
   <path d="m0 0c0.438 0.254 0.708 0.725 0.708 1.231v3.304c0 0.508-0.27 0.977-0.709 1.233l-11.73 6.809c-0.444 0.257-0.987 0.257-1.429 0l-11.803-6.812c-0.443-0.256-0.714-0.724-0.714-1.234v-13.625c0-0.512 0.277-0.986 0.719-1.24l11.728-6.685c0.431-0.247 0.961-0.25 1.398-7e-3l7.094 3.942c0.223 0.126 0.365 0.362 0.365 0.618 0 0.257-0.137 0.496-0.359 0.622l-11.875 6.815c-0.223 0.126-0.36 0.362-0.36 0.616v4.274c0 0.255 0.134 0.491 0.357 0.618l3.695 2.131c0.22 0.128 0.49 0.128 0.71 0l3.697-2.131c0.221-0.125 0.357-0.363 0.357-0.617v-3.359c0-0.254 0.136-0.491 0.357-0.619 0.22-0.125 0.493-0.125 0.713 3e-3zm-39.313 29.858c-0.22 0.123-0.49 0.12-0.708-7e-3 -0.217-0.128-0.351-0.363-0.351-0.617v-18.11c0-0.178-0.096-0.343-0.25-0.432-0.153-0.088-0.344-0.088-0.498 0l-2.956 1.703c-0.441 0.254-0.983 0.254-1.425 0l-11.806-6.813c-0.44-0.254-0.713-0.725-0.713-1.231v-13.631c0-0.51 0.273-0.978 0.713-1.235l11.806-6.817c0.44-0.254 0.983-0.254 1.426 0l11.805 6.82c0.44 0.257 0.713 0.725 0.713 1.235v33.969c0 0.518-0.281 0.994-0.732 1.246zm-1.094-34.662c0-0.127-0.068-0.245-0.178-0.307l-4.054-2.337c-0.11-0.064-0.246-0.064-0.356 0l-4.054 2.337c-0.111 0.062-0.178 0.18-0.178 0.307v4.68c0 0.128 0.067 0.245 0.175 0.31l4.052 2.34c0.111 0.064 0.248 0.064 0.359 0l4.054-2.34c0.111-0.065 0.179-0.182 0.179-0.31zm-55.689 9.523c0 0.512-0.269 0.983-0.712 1.238l-11.801 6.79c-0.2 0.117-0.423 0.179-0.649 0.188h-0.122c-0.226-9e-3 -0.45-0.071-0.652-0.188l-11.801-6.79c-0.439-0.256-0.714-0.727-0.714-1.239l0.026-18.289c0-0.254 0.131-0.491 0.354-0.617 0.217-0.133 0.49-0.133 0.708 0l7.016 4.018c0.442 0.264 0.713 0.73 0.713 1.237v8.544c0 0.51 0.27 0.982 0.711 1.235l2.988 1.72c0.221 0.128 0.465 0.192 0.713 0.192 0.244 0 0.493-0.063 0.709-0.192l2.985-1.719c0.442-0.254 0.713-0.725 0.713-1.235v-8.543c0-0.507 0.274-0.975 0.715-1.237l7.011-4.015c0.22-0.131 0.495-0.131 0.713 0 0.217 0.125 0.354 0.362 0.354 0.616z" fill="#585858"/>
  </g>
  <g transform="matrix(.35278 0 0 -.35278 167.35 -58.881)">
   <path d="m0 0c0.084 0.05 0.188 0.05 0.273 0l2.266-1.307c0.084-0.048 0.136-0.138 0.136-0.236v-2.616c0-0.098-0.052-0.189-0.136-0.237l-2.266-1.307c-0.085-0.05-0.189-0.05-0.273 0l-2.264 1.307c-0.086 0.048-0.138 0.139-0.138 0.237v2.616c0 0.098 0.049 0.188 0.135 0.236z" fill="#87c540"/>
  </g>
  <g transform="matrix(.35278 0 0 -.35278 144.36 -63.07)">
   <path d="m0 0-11.739-6.775c-0.44-0.254-0.709-0.722-0.709-1.228v-13.56c0-0.506 0.269-0.974 0.709-1.228l11.739-6.78c0.439-0.253 0.98-0.253 1.419 0l11.737 6.78c0.438 0.254 0.707 0.722 0.707 1.228v13.56c0 0.506-0.269 0.974-0.71 1.228l-11.736 6.775c-0.22 0.126-0.465 0.189-0.71 0.189s-0.49-0.063-0.711-0.189" fill="#87c540"/>
  </g>
 </g>
</svg>
