<?xml version="1.0" encoding="UTF-8" standalone="no"?>
<svg
   xmlns:dc="http://purl.org/dc/elements/1.1/"
   xmlns:cc="http://creativecommons.org/ns#"
   xmlns:rdf="http://www.w3.org/1999/02/22-rdf-syntax-ns#"
   xmlns:svg="http://www.w3.org/2000/svg"
   xmlns="http://www.w3.org/2000/svg"
   id="svg8"
   version="1.1"
   viewBox="0 0 43.481624 26.63027"
   height="26.63027mm"
   width="43.481625mm">
  <defs
     id="defs2">
    <clipPath
       clipPathUnits="userSpaceOnUse"
       id="clipPath849">
      <path
         d="M 0,720 H 1280 V 0 H 0 Z"
         id="path847" />
    </clipPath>
  </defs>
  <metadata
     id="metadata5">
    <rdf:RDF>
      <cc:Work
         rdf:about="">
        <dc:format>image/svg+xml</dc:format>
        <dc:type
           rdf:resource="http://purl.org/dc/dcmitype/StillImage" />
        <dc:title></dc:title>
      </cc:Work>
    </rdf:RDF>
  </metadata>
  <g
     transform="translate(-128.56505,69.221863)"
     id="layer1">
    <g
       transform="matrix(0.35277777,0,0,-0.35277777,183.70449,68.959352)"
       id="g875">
      <path
         id="path877"
         style="fill:#e54f26;fill-opacity:1;fill-rule:nonzero;stroke:none"
         d="M 0,0 H 4.047 V -3.998 H 7.749 V 0 h 4.047 V -12.107 H 7.749 v 4.054 H 4.047 v -4.054 H 0 Z" />
    </g>
    <g
       transform="matrix(0.35277777,0,0,-0.35277777,189.7432,70.375823)"
       id="g879">
      <path
         id="path881"
         style="fill:#e54f26;fill-opacity:1;fill-rule:nonzero;stroke:none"
         d="M 0,0 H -3.563 V 4.015 H 7.611 V 0 H 4.047 V -8.092 H 0 Z" />
    </g>
    <g
       transform="matrix(0.35277777,0,0,-0.35277777,193.05395,68.959352)"
       id="g883">
      <path
         id="path885"
         style="fill:#e54f26;fill-opacity:1;fill-rule:nonzero;stroke:none"
         d="M 0,0 H 4.22 L 6.815,-4.254 9.408,0 h 4.221 V -12.107 H 9.6 v 6.001 L 6.815,-10.411 H 6.746 l -2.787,4.305 v -6.001 H 0 Z" />
    </g>
    <g
       transform="matrix(0.35277777,0,0,-0.35277777,198.57266,68.959352)"
       id="g887">
      <path
         id="path889"
         style="fill:#e54f26;fill-opacity:1;fill-rule:nonzero;stroke:none"
         d="m 0,0 h 4.048 v -8.105 h 5.691 v -4.002 H 0 Z" />
    </g>
    <g
       transform="matrix(0.35277777,0,0,-0.35277777,199.79705,80.619823)"
       id="g891">
      <path
         id="path893"
         style="fill:#e54f26;fill-opacity:1;fill-rule:nonzero;stroke:none"
         d="m 0,0 -0.363,-4.037 -0.159,-1.79 h -0.026 -19.182 -0.028 -11.238 l 0.728,-8.154 h 10.51 0.028 16.337 2.146 l -0.194,-2.139 -1.872,-20.964 -0.12,-1.346 -16.297,-4.517 v -10e-4 l -0.037,-0.01 -16.312,4.528 -1.115,12.504 h 3.684 4.309 l 0.567,-6.351 8.869,-2.395 0.007,0.002 v 0.001 l 8.882,2.397 0.924,10.327 H -19.73 -19.758 -37.55 L -39.508,0 l -0.19,2.136 h 19.94 0.028 19.92 z m -51.535,15.409 5.789,-64.929 25.977,-7.211 26.048,7.221 5.796,64.919 z" />
    </g>
    <g
       transform="matrix(0.35277777,0,0,-0.35277777,-171.39678,-29.765067)"
       id="g895">
      <path
         id="path897"
         style="fill:#0c73b8;fill-opacity:1;fill-rule:nonzero;stroke:none"
         d="M 0,0 H 9.919 V -4.148 H 4.148 v -4.148 h 5.771 v -4.148 H 0 Z" />
    </g>
    <g
       transform="matrix(0.35277777,0,0,-0.35277777,-167.19756,-29.765067)"
       id="g899">
      <path
         id="path901"
         style="fill:#0c73b8;fill-opacity:1;fill-rule:nonzero;stroke:none"
         d="M 0,0 H 9.919 V -3.607 H 4.148 v -0.721 h 5.771 v -8.297 H 0 v 3.788 h 5.771 v 0.721 H 0 Z" />
    </g>
    <g
       transform="matrix(0.35277777,0,0,-0.35277777,-162.99848,-29.765067)"
       id="g903">
      <path
         id="path905"
         style="fill:#0c73b8;fill-opacity:1;fill-rule:nonzero;stroke:none"
         d="M 0,0 H 9.92 V -3.607 H 4.148 V -4.328 H 9.92 v -8.297 H 0 v 3.788 h 5.771 v 0.721 H 0 Z" />
    </g>
    <g
       transform="matrix(0.35277777,0,0,-0.35277777,-158.5829,-12.700147)"
       id="g907">
      <path
         id="path909"
         style="fill:#0c73b8;fill-opacity:1;fill-rule:nonzero;stroke:none"
         d="m 0,0 -0.2,-2.199 -1.924,-21.561 -0.124,-1.384 -16.761,-4.646 v -0.001 l -0.038,-0.01 -16.776,4.657 -1.147,12.859 h 3.789 4.432 l 0.583,-6.531 9.121,-2.463 0.008,0.002 v 0 l 9.134,2.465 0.951,10.622 h -10.057 -0.028 -18.299 L -38.07,0 h 19.033 0.028 10.767 l 0.745,8.386 h -11.512 -0.028 -19.764 l -0.744,8.19 h 20.508 0.028 20.488 z m -51.719,30.226 5.954,-66.776 26.716,-7.416 26.79,7.426 5.96,66.766 z" />
    </g>
    <g
       transform="matrix(0.35277777,0,0,-0.35277777,-140.02018,118.13422)"
       id="g911">
      <path
         id="path913"
         style="fill:#106baf;fill-opacity:1;fill-rule:nonzero;stroke:none"
         d="m 0,0 -3.489,-4.431 c -4.471,-6.425 -3.916,-14.789 -0.5,-21.619 0.081,-0.162 0.17,-0.323 0.254,-0.484 0.054,-0.103 0.098,-0.205 0.153,-0.305 l 0.102,-0.179 c 0.058,-0.108 0.119,-0.208 0.178,-0.314 0.108,-0.188 0.22,-0.374 0.331,-0.56 0.062,-0.102 0.116,-0.203 0.179,-0.305 0.124,-0.199 0.253,-0.398 0.381,-0.595 l 0.161,-0.246 c 0.18,-0.266 0.365,-0.527 0.552,-0.789 l 0.009,-0.026 0.093,-0.127 c 0.163,-0.224 0.332,-0.443 0.501,-0.662 l 0.187,-0.237 c 0.151,-0.191 0.31,-0.38 0.467,-0.569 l 0.17,-0.213 c 0.21,-0.247 0.426,-0.489 0.645,-0.73 l 0.016,-0.016 0.026,-0.026 c 0.213,-0.233 0.433,-0.46 0.653,-0.688 l 0.204,-0.212 c 0.173,-0.172 0.351,-0.34 0.526,-0.509 l 0.213,-0.203 c 0.235,-0.222 0.469,-0.442 0.713,-0.654 l 0.017,-0.009 0.118,-0.11 c 0.214,-0.184 0.434,-0.363 0.654,-0.543 l 0.263,-0.213 c 0.178,-0.142 0.36,-0.285 0.543,-0.424 l 0.289,-0.221 c 0.201,-0.148 0.407,-0.299 0.611,-0.441 l 0.221,-0.153 0.059,-0.042 c 0.195,-0.133 0.396,-0.262 0.594,-0.391 l 0.255,-0.17 c 0.304,-0.192 0.613,-0.384 0.925,-0.568 l 0.255,-0.144 c 0.23,-0.132 0.454,-0.265 0.687,-0.391 0.127,-0.068 0.263,-0.129 0.391,-0.195 0.165,-0.087 0.324,-0.17 0.492,-0.255 l 0.119,-0.059 0.195,-0.094 c 0.261,-0.124 0.525,-0.247 0.79,-0.364 l 0.17,-0.077 c 0.302,-0.133 0.607,-0.26 0.916,-0.382 l 0.221,-0.085 c 0.286,-0.11 0.575,-0.221 0.865,-0.323 l 0.111,-0.042 c 0.32,-0.111 0.643,-0.213 0.968,-0.314 l 0.229,-0.068 c 0.33,-0.1 0.653,-0.217 0.993,-0.28 21.623,-3.944 27.909,12.995 27.909,12.995 -5.274,-6.873 -14.639,-8.689 -23.512,-6.671 -0.337,0.076 -0.666,0.184 -0.993,0.28 l -0.247,0.076 c -0.319,0.098 -0.635,0.197 -0.95,0.306 l -0.128,0.051 c -0.282,0.099 -0.563,0.206 -0.84,0.314 l -0.238,0.093 c -0.305,0.121 -0.609,0.243 -0.908,0.374 l -0.186,0.076 c -0.258,0.117 -0.509,0.235 -0.765,0.356 l -0.22,0.111 c -0.199,0.096 -0.39,0.195 -0.586,0.297 -0.133,0.068 -0.268,0.141 -0.399,0.212 -0.239,0.13 -0.478,0.263 -0.713,0.399 l -0.237,0.127 c -0.314,0.184 -0.621,0.376 -0.926,0.569 l -0.246,0.17 c -0.22,0.143 -0.444,0.284 -0.662,0.433 l -0.204,0.153 c -0.212,0.148 -0.423,0.296 -0.627,0.449 l -0.272,0.204 c -0.188,0.144 -0.375,0.292 -0.56,0.442 l -0.255,0.203 c -0.237,0.194 -0.465,0.386 -0.696,0.586 l -0.076,0.059 c -0.249,0.219 -0.497,0.447 -0.739,0.671 l -0.204,0.203 C 6.018,-27.348 5.844,-27.176 5.67,-27 l -0.212,0.203 c -0.22,0.226 -0.435,0.456 -0.646,0.688 l -0.033,0.034 c -0.223,0.244 -0.44,0.494 -0.654,0.746 l -0.169,0.204 c -0.161,0.193 -0.321,0.39 -0.476,0.586 l -0.17,0.212 c -0.187,0.241 -0.375,0.486 -0.551,0.73 C -2.167,-16.878 -3.938,-7.609 0,0 M 13.029,4.711 10.389,0.985 C 7.156,-3.668 7.333,-9.899 9.854,-14.82 c 0.424,-0.826 0.897,-1.622 1.427,-2.385 0.484,-0.694 1.03,-1.523 1.672,-2.08 0.234,-0.257 0.474,-0.508 0.721,-0.756 l 0.196,-0.186 c 0.24,-0.234 0.484,-0.463 0.738,-0.688 l 0.025,-0.025 0.009,-0.009 c 0.28,-0.245 0.571,-0.479 0.866,-0.713 l 0.195,-0.152 c 0.296,-0.227 0.599,-0.451 0.908,-0.663 l 0.026,-0.025 c 0.135,-0.094 0.278,-0.182 0.415,-0.271 l 0.196,-0.128 c 0.221,-0.141 0.444,-0.276 0.67,-0.407 l 0.094,-0.06 c 0.196,-0.111 0.394,-0.223 0.594,-0.331 l 0.212,-0.11 c 0.139,-0.071 0.276,-0.143 0.416,-0.212 l 0.059,-0.034 c 0.285,-0.141 0.574,-0.271 0.866,-0.399 l 0.195,-0.076 c 0.235,-0.099 0.466,-0.199 0.705,-0.289 0.101,-0.038 0.203,-0.074 0.305,-0.11 0.216,-0.081 0.435,-0.156 0.654,-0.23 0.099,-0.031 0.199,-0.062 0.297,-0.093 0.311,-0.097 0.619,-0.218 0.942,-0.271 16.695,-2.767 20.55,10.083 20.55,10.083 -3.474,-5.005 -10.204,-7.39 -17.384,-5.525 -0.319,0.083 -0.638,0.172 -0.95,0.271 l -0.28,0.093 c -0.222,0.073 -0.443,0.151 -0.662,0.23 -0.1,0.037 -0.198,0.072 -0.298,0.11 -0.239,0.091 -0.479,0.189 -0.712,0.288 l -0.196,0.077 c -0.292,0.129 -0.58,0.266 -0.866,0.407 -0.147,0.072 -0.296,0.147 -0.441,0.221 l -0.246,0.127 c -0.187,0.102 -0.378,0.208 -0.56,0.314 l -0.128,0.077 c -0.226,0.133 -0.45,0.266 -0.67,0.407 l -0.204,0.136 c -0.145,0.095 -0.291,0.192 -0.433,0.289 -0.309,0.212 -0.605,0.437 -0.9,0.662 l -0.203,0.152 c -3.144,2.48 -5.639,5.875 -6.824,9.72 -1.242,3.988 -0.972,8.462 1.179,12.095 m 10.458,2.283 -1.426,-1.96 c -1.907,-2.805 -2.087,-6.29 -0.765,-9.388 1.394,-3.288 4.246,-5.874 7.58,-7.096 0.138,-0.052 0.278,-0.098 0.416,-0.145 l 0.187,-0.059 c 0.198,-0.061 0.391,-0.131 0.594,-0.17 9.219,-1.78 11.719,4.727 12.385,5.687 -2.191,-3.154 -5.874,-3.906 -10.39,-2.809 -0.355,0.085 -0.745,0.21 -1.087,0.331 -0.442,0.158 -0.876,0.339 -1.298,0.543 -0.803,0.385 -1.566,0.857 -2.275,1.392 -4.041,3.066 -6.557,8.91 -3.921,13.674" />
    </g>
    <g
       transform="matrix(0.35277777,0,0,-0.35277777,-152.12367,139.53912)"
       id="g915">
      <path
         id="path917"
         style="fill:#585858;fill-opacity:1;fill-rule:nonzero;stroke:none"
         d="m 0,0 c -0.253,0 -0.504,-0.204 -0.56,-0.452 l -0.71,-3.143 -0.711,-3.143 c -0.056,-0.247 -0.145,-0.655 -0.197,-0.903 l -0.683,-3.209 -0.682,-3.209 c -0.053,-0.247 -0.163,-0.649 -0.245,-0.889 0,0 -0.943,-2.808 -2.531,-2.776 -0.067,0.002 -0.132,-0.002 -0.198,0 -0.767,0.014 -1.374,0.028 -1.374,0.028 -0.253,0.004 -0.505,-0.196 -0.564,-0.442 l -0.527,-2.202 -0.522,-2.202 c -0.059,-0.246 0.101,-0.452 0.353,-0.457 0.899,-0.01 2.914,-0.033 4.135,-0.033 3.965,0 6.057,2.2 7.397,8.521 l 1.567,7.256 1.472,6.803 C 5.475,-0.204 5.307,0 5.053,0 Z m 67.016,1.755 c 2.845,0 3.397,-1.387 3.204,-2.95 -0.034,-0.272 -0.284,-0.475 -0.536,-0.475 h -6.913 c -0.238,0 -0.364,0.162 -0.329,0.362 l 0.005,0.014 0.005,0.024 c 0,0 0.009,0.048 0.028,0.117 0.66,1.756 2.008,2.908 4.536,2.908 m 14.298,4.668 c -0.253,0 -0.507,-0.204 -0.559,-0.452 L 80.571,5.091 80.35,4.046 80.289,3.755 78.388,-5.147 76.581,-13.603 c -0.053,-0.248 -0.068,-0.553 -0.038,-0.677 0.031,-0.124 0.514,-0.221 0.768,-0.221 h 3.811 c 0.254,0 0.572,0.043 0.71,0.099 0.139,0.056 0.345,0.555 0.396,0.804 l 0.677,3.346 0.678,3.35 v 0.005 l 0.089,0.446 0.823,3.849 0.725,3.397 c 0.053,0.247 0.302,0.447 0.555,0.447 l 11.984,0.005 c 0.253,10e-4 0.411,0.204 0.353,0.452 L 97.905,2.564 97.698,3.449 97.59,3.901 c -0.411,1.595 -1.614,2.512 -4.23,2.512 l -4.075,0.005 -3.75,0.005 z M 38.079,6.475 c -0.254,0 -0.504,-0.205 -0.555,-0.452 L 36.517,1.242 35.505,-3.538 V -3.543 L 35.411,-3.99 c -1.161,-5.299 -0.851,-10.353 5.458,-10.511 0.103,-0.003 0.184,0 0.184,0 h 9.899 c 0.254,0 0.503,0.203 0.555,0.452 l 2.137,10.036 2.136,10.036 c 0.052,0.248 -0.113,0.452 -0.367,0.452 h -4.564 c -0.254,0 -0.506,-0.205 -0.56,-0.452 l -1.619,-7.496 -1.623,-7.5 C 46.994,-9.22 46.745,-9.424 46.492,-9.424 h -3.233 c -3.197,0 -2.829,2.212 -2.174,5.241 l 0.019,0.09 0.071,0.385 0.014,0.071 0.146,0.777 0.155,0.832 c 0.048,0.251 0.123,0.621 0.17,0.852 l 0.738,3.599 0.734,3.6 c 0.051,0.248 -0.113,0.452 -0.367,0.452 z M 1.497,6.531 C 1.243,6.531 0.988,6.326 0.932,6.079 L 0.457,3.981 -0.019,1.882 C -0.075,1.636 0.085,1.431 0.339,1.431 h 5.053 c 0.254,0 0.506,0.204 0.56,0.451 L 6.413,3.981 6.875,6.079 C 6.929,6.327 6.766,6.531 6.512,6.531 Z m 20.09,0.075 c 4.954,0.143 5.926,-3.541 4.668,-7.773 l -0.127,-0.442 v -0.005 l -0.993,-3.529 -0.997,-3.528 c -0.07,-0.244 -0.334,-0.448 -0.589,-0.448 H 18.28 c -4.001,0 -4.979,3.13 -4.005,7.745 0.974,4.72 2.886,7.655 6.823,7.952 0.168,0.013 0.33,0.024 0.489,0.028 M 68.192,6.78 c -8.873,0 -10.974,-5.386 -12.153,-10.822 -1.18,-5.54 -1.08,-10.718 8.102,-10.718 h 0.329 0.085 0.593 0.108 0.278 0.066 c 0.363,10e-4 0.731,0.004 1.101,0.005 h 0.018 c 2.426,0.009 4.854,0.029 5.84,0.037 0.252,0.004 0.498,0.206 0.55,0.452 l 0.371,1.816 0.076,0.353 0.442,2.169 c 0.051,0.248 -0.118,0.452 -0.372,0.452 h -8.252 c -3.283,0 -4.26,0.87 -3.901,3.435 h 13.198 0.009 c 0.21,0.003 0.403,0.151 0.48,0.343 l 0.033,0.113 h -0.005 c 1.96,7.39 1.397,12.365 -6.996,12.365 m 46.793,2.753 -1.449,-0.01 c -0.254,-0.002 -0.669,-0.004 -0.923,-0.004 h -3.834 c -0.254,0 -0.577,-0.172 -0.72,-0.381 L 99.575,-3.284 c -0.143,-0.21 -0.305,-0.181 -0.362,0.066 l -0.621,2.738 c -0.056,0.248 -0.311,0.447 -0.565,0.447 h -5.453 c -0.254,0 -0.403,-0.198 -0.334,-0.442 l 2.442,-8.559 c 0.069,-0.244 0.077,-0.644 0.014,-0.889 l -1.068,-4.14 c -0.064,-0.248 0.095,-0.448 0.348,-0.448 h 5.388 c 0.253,0 0.515,0.2 0.578,0.448 l 1.064,4.14 c 0.062,0.245 0.237,0.611 0.39,0.814 l 13.772,18.275 c 0.153,0.202 0.07,0.368 -0.183,0.367 m -92.654,2.583 c -8.977,0 -12.877,-6.464 -14.365,-13.49 -1.487,-7.077 0.462,-13.282 9.387,-13.23 l 7.043,0.023 6.578,0.023 c 0.254,0.002 0.514,0.203 0.579,0.447 l 1.148,4.376 c 0.064,0.246 -0.095,0.446 -0.348,0.447 l -1.097,0.005 -1.101,0.009 c -0.215,0.002 -0.336,0.14 -0.31,0.325 l 0.028,0.103 c 0,0 2.484,6.036 3.049,9.524 0.769,4.668 -1.564,11.438 -10.591,11.438" />
    </g>
    <g
       transform="matrix(0.35277777,0,0,-0.35277777,-72.412446,-6.6124671)"
       id="g955">
      <path
         id="path957"
         style="fill:#e7a020;fill-opacity:1;fill-rule:nonzero;stroke:none"
         d="M 0,0 -16.654,-4.729 -33.308,0 -34.483,12.672 h 8.225 l 0.543,-6.341 9.061,-2.611 8.924,2.572 0.913,10.479 h -9.837 -18.14 l -0.048,-0.156 2.289,24.773 H -16.654 0.382 L 2.191,28.416 h -8.298 l -0.304,4.747 h -10.243 -9.217 l -0.378,-8.293 h 9.595 18.946 z m -16.654,54.895 h -32.541 l 6.098,-66.16 26.443,-7.496 26.433,7.496 6.108,66.16 z" />
    </g>
    <g
       transform="matrix(0.35277777,0,0,-0.35277777,-80.521856,-29.421067)"
       id="g959">
      <path
         id="path961"
         style="fill:#e7a020;fill-opacity:1;fill-rule:nonzero;stroke:none"
         d="M 0,0 H -5.787 V -4.156 H 0 3.099 4.147 V 8.196 H 0 Z" />
    </g>
    <g
       transform="matrix(0.35277777,0,0,-0.35277777,-74.011666,-32.290317)"
       id="g963">
      <path
         id="path965"
         style="fill:#e7a020;fill-opacity:1;fill-rule:nonzero;stroke:none"
         d="m 0,0 h -10.095 v -4.326 c 1.35,-1.35 2.055,-1.997 4.009,-3.95 -1.143,0 -4.009,-0.004 -4.009,-0.004 v -3.946 H 0 v 3.947 l -4.032,3.953 H 0 Z" />
    </g>
    <g
       transform="matrix(0.35277777,0,0,-0.35277777,-143.5452,193.60108)"
       id="g1011">
      <path
         id="path1013"
         style="fill:#6182b8;fill-opacity:1;fill-rule:nonzero;stroke:none"
         d="m 0,0 c -0.602,-0.031 -1.475,-0.118 -2.346,-0.108 -0.612,0.007 -0.834,-0.234 -0.947,-0.817 -0.845,-4.32 -1.714,-8.636 -2.596,-12.948 -0.152,-0.74 0.033,-1.057 0.836,-1.05 2.576,0.022 5.144,0.125 7.648,0.785 1.259,0.331 2.3,1.045 2.967,2.191 1.557,2.676 2.196,5.573 1.912,8.648 C 7.353,-1.987 6.655,-1.108 5.303,-0.707 3.65,-0.216 1.954,-0.203 0,0 m -15.862,-28.496 c 0.976,1.767 1,3.78 1.39,5.685 1.84,8.973 3.585,17.965 5.338,26.956 0.193,0.989 0.555,1.407 1.683,1.381 C -3.563,5.437 0.328,5.497 4.217,5.488 6.473,5.483 8.675,5.215 10.653,4.002 c 2.792,-1.712 3.953,-4.364 4.002,-7.482 0.087,-5.622 -1.764,-10.46 -6.167,-14.162 -2.403,-2.02 -5.313,-2.495 -8.289,-2.663 -2.084,-0.116 -4.18,-0.078 -6.27,-0.03 -0.827,0.019 -1.186,-0.19 -1.336,-1.063 -0.416,-2.436 -0.992,-4.843 -1.409,-7.279 -0.138,-0.8 -0.424,-1.045 -1.213,-1.022 -1.943,0.055 -3.888,0.029 -5.833,0.035 z" />
    </g>
    <g
       transform="matrix(0.35277777,0,0,-0.35277777,-124.02216,198.84248)"
       id="g1015">
      <path
         id="path1017"
         style="fill:#6182b8;fill-opacity:1;fill-rule:nonzero;stroke:none"
         d="m 0,0 c 0.728,0.035 1.461,0.022 2.18,0.115 2.659,0.344 5.396,0.575 6.761,3.45 1.164,2.45 1.76,5.03 1.554,7.746 C 10.382,12.791 9.676,13.814 8.1,14.197 5.57,14.813 3.023,14.883 0.446,14.744 -0.16,14.712 -0.199,14.374 -0.292,13.903 -1.032,10.15 -1.827,6.408 -2.562,2.654 -3.131,-0.256 -3.104,-0.262 0,0 m -12.836,-14.825 c 2.267,11.463 4.508,22.766 6.73,34.074 0.169,0.864 0.561,1.138 1.461,1.125 3.936,-0.058 7.873,-0.025 11.81,-0.025 1.413,0 2.823,-0.091 4.183,-0.479 3.679,-1.05 6.008,-4.022 6.232,-7.88 C 17.795,8.269 17.073,4.761 15.172,1.529 12.492,-3.027 8.508,-5.379 3.214,-5.464 1.077,-5.498 -1.062,-5.519 -3.2,-5.48 c -0.781,0.013 -1.064,-0.207 -1.2,-1.02 -0.401,-2.387 -0.993,-4.741 -1.391,-7.128 -0.165,-0.984 -0.554,-1.261 -1.512,-1.22 -1.791,0.077 -3.587,0.023 -5.533,0.023" />
    </g>
    <g
       transform="matrix(0.35277777,0,0,-0.35277777,-133.30156,188.33252)"
       id="g1019">
      <path
         id="path1021"
         style="fill:#6182b8;fill-opacity:1;fill-rule:nonzero;stroke:none"
         d="m 0,0 c -0.572,-2.792 -1.094,-5.495 -1.692,-8.182 -0.226,-1.012 0.012,-1.287 1.078,-1.29 3.147,-0.008 6.32,0.324 9.417,-0.604 3.638,-1.09 5.237,-3.39 4.57,-7.119 -1.042,-5.82 -2.261,-11.608 -3.363,-17.418 -0.113,-0.59 -0.362,-0.684 -0.856,-0.681 -1.991,0.013 -3.982,0.005 -6.141,0.005 0.824,4.105 1.637,8.111 2.431,12.121 0.31,1.568 0.665,3.137 0.848,4.722 0.237,2.067 -0.673,3.154 -2.754,3.274 -1.94,0.111 -3.892,0.015 -5.835,0.083 -0.779,0.028 -0.812,-0.404 -0.923,-0.965 -1.212,-6.084 -2.468,-12.158 -3.645,-18.248 -0.152,-0.784 -0.372,-1.037 -1.163,-1.006 -1.554,0.063 -3.116,0.088 -4.667,-0.005 -1.037,-0.063 -1.09,0.346 -0.921,1.177 1.183,5.795 2.335,11.597 3.502,17.395 1.042,5.178 2.123,10.349 3.107,15.538 0.187,0.981 0.548,1.263 1.503,1.224 C -3.71,-0.052 -1.912,0 0,0" />
    </g>
    <g
       transform="matrix(0.35277777,0,0,-0.35277777,56.627208,-65.747113)"
       id="g1151">
      <path
         id="path1153"
         style="fill:#4381b1;fill-opacity:1;fill-rule:nonzero;stroke:none"
         d="m 0,0 c 1.679,0 3.037,-1.357 3.037,-3.036 0,-1.68 -1.358,-3.037 -3.037,-3.037 -1.68,0 -3.037,1.357 -3.037,3.037 C -3.037,-1.357 -1.68,0 0,0 m 9.307,5.344 c -17.688,0 -16.583,-7.671 -16.583,-7.671 l 0.02,-7.946 H 9.623 v -2.386 h -23.584 c 0,0 -11.318,1.283 -11.318,-16.564 0,-17.846 9.879,-17.214 9.879,-17.214 h 5.896 v 8.282 c 0,0 -0.318,9.879 9.721,9.879 h 16.741 c 0,0 9.406,-0.152 9.406,9.09 v 15.282 c 0,0 1.428,9.248 -17.057,9.248" />
    </g>
    <g
       transform="matrix(0.35277777,0,0,-0.35277777,63.371154,-45.065873)"
       id="g1155">
      <path
         id="path1157"
         style="fill:#e09e19;fill-opacity:1;fill-rule:nonzero;stroke:none"
         d="m 0,0 c -1.68,0 -3.037,1.357 -3.037,3.036 0,1.68 1.357,3.037 3.037,3.037 1.679,0 3.036,-1.357 3.036,-3.037 C 3.036,1.357 1.679,0 0,0 m -9.308,-5.344 c 17.688,0 16.583,7.67 16.583,7.67 L 7.256,10.273 H -9.623 v 2.386 H 13.96 c 0,0 11.318,-1.284 11.318,16.564 0,17.846 -9.879,17.214 -9.879,17.214 H 9.504 v -8.282 c 0,0 0.318,-9.879 -9.721,-9.879 h -16.741 c 0,0 -9.406,0.152 -9.406,-9.09 V 3.904 c 0,0 -1.428,-9.248 17.056,-9.248" />
    </g>
    <g
       transform="matrix(0.35277777,0,0,-0.35277777,150.05663,-42.591593)"
       id="g1159">
      <path
         id="path1161"
         style="fill:#87c540;fill-opacity:1;fill-rule:nonzero;stroke:none"
         d="m 0,0 c -0.407,0 -0.812,0.106 -1.168,0.312 l -3.716,2.2 c -0.554,0.31 -0.284,0.42 -0.101,0.483 0.74,0.259 0.89,0.318 1.68,0.767 0.083,0.047 0.192,0.03 0.277,-0.02 l 2.854,-1.694 c 0.104,-0.056 0.25,-0.056 0.346,0 l 11.131,6.425 c 0.102,0.058 0.17,0.178 0.17,0.3 v 12.845 c 0,0.128 -0.068,0.242 -0.172,0.307 l -11.127,6.42 c -0.104,0.06 -0.239,0.06 -0.343,0 l -11.124,-6.42 c -0.108,-0.062 -0.177,-0.181 -0.177,-0.304 V 8.776 c 0,-0.122 0.067,-0.239 0.173,-0.297 l 3.048,-1.761 c 1.655,-0.828 2.667,0.147 2.667,1.128 v 12.677 c 0,0.181 0.142,0.321 0.323,0.321 h 1.409 c 0.176,0 0.321,-0.14 0.321,-0.321 V 7.841 c 0,-2.207 -1.203,-3.475 -3.296,-3.475 -0.644,0 -1.151,0 -2.567,0.696 l -2.92,1.683 c -0.721,0.418 -1.167,1.198 -1.167,2.031 v 12.845 c 0,0.836 0.446,1.616 1.167,2.028 l 11.143,6.428 c 0.705,0.399 1.641,0.399 2.341,0 L 12.3,23.646 c 0.719,-0.415 1.167,-1.192 1.167,-2.028 V 8.773 C 13.467,7.94 13.019,7.163 12.3,6.745 L 1.172,0.317 C 0.814,0.111 0.411,0.006 -0.002,0.006" />
    </g>
    <g
       transform="matrix(0.35277777,0,0,-0.35277777,156.92651,-50.461573)"
       id="g1163">
      <path
         id="path1165"
         style="fill:#87c540;fill-opacity:1;fill-rule:nonzero;stroke:none"
         d="m 0,0 c 0,-1.182 -0.967,-2.146 -2.146,-2.146 -1.17,0 -2.145,0.954 -2.145,2.146 0,1.215 0.997,2.146 2.145,2.146 1.157,0 2.143,-0.934 2.143,-2.146 m -3.94,0.006 c 0,-0.998 0.805,-1.806 1.795,-1.806 0.997,0 1.802,0.825 1.802,1.806 0,1 -0.816,1.794 -1.805,1.794 -0.976,0 -1.794,-0.782 -1.794,-1.791 m 0.997,1.195 h 0.827 c 0.284,0 0.842,0 0.842,-0.636 0,-0.442 -0.284,-0.535 -0.454,-0.59 0.331,-0.022 0.353,-0.24 0.398,-0.546 0.023,-0.193 0.059,-0.524 0.125,-0.635 h -0.51 c -0.013,0.111 -0.092,0.724 -0.092,0.758 -0.033,0.135 -0.081,0.203 -0.251,0.203 H -2.482 V -1.206 H -2.948 Z M -2.494,0.15 h 0.373 c 0.307,0 0.365,0.215 0.365,0.34 0,0.329 -0.225,0.329 -0.35,0.329 h -0.385 z m -13.542,-13.608 c -4.87,0 -5.892,2.235 -5.892,4.11 0,0.179 0.145,0.321 0.323,0.321 h 1.438 c 0.158,0 0.292,-0.116 0.317,-0.273 0.218,-1.465 0.864,-2.203 3.809,-2.203 2.347,0 3.344,0.529 3.344,1.774 0,0.715 -0.284,1.248 -3.929,1.605 -3.048,0.301 -4.932,0.972 -4.932,3.41 0,2.245 1.895,3.583 5.069,3.583 3.563,0 5.33,-1.237 5.552,-3.895 0.009,-0.092 -0.025,-0.181 -0.085,-0.248 -0.062,-0.064 -0.149,-0.103 -0.238,-0.103 h -1.446 c -0.15,0 -0.281,0.106 -0.312,0.25 -0.348,1.541 -1.189,2.034 -3.477,2.034 -2.561,0 -2.859,-0.891 -2.859,-1.559 0,-0.812 0.351,-1.048 3.806,-1.505 3.422,-0.454 5.046,-1.095 5.046,-3.5 0,-2.424 -2.022,-3.815 -5.55,-3.815" />
    </g>
    <g
       transform="matrix(0.35277777,0,0,-0.35277777,171.79691,-58.656773)"
       id="g1167">
      <path
         id="path1169"
         style="fill:#585858;fill-opacity:1;fill-rule:nonzero;stroke:none"
         d="m 0,0 c 0.438,0.254 0.708,0.725 0.708,1.231 v 3.304 c 0,0.508 -0.27,0.977 -0.709,1.233 l -11.73,6.809 c -0.444,0.257 -0.987,0.257 -1.429,0 L -24.963,5.765 C -25.406,5.509 -25.677,5.041 -25.677,4.531 V -9.094 c 0,-0.512 0.277,-0.986 0.719,-1.24 l 11.728,-6.685 c 0.431,-0.247 0.961,-0.25 1.398,-0.007 l 7.094,3.942 c 0.223,0.126 0.365,0.362 0.365,0.618 0,0.257 -0.137,0.496 -0.359,0.622 l -11.875,6.815 c -0.223,0.126 -0.36,0.362 -0.36,0.616 v 4.274 c 0,0.255 0.134,0.491 0.357,0.618 l 3.695,2.131 c 0.22,0.128 0.49,0.128 0.71,0 l 3.697,-2.131 c 0.221,-0.125 0.357,-0.363 0.357,-0.617 v -3.359 c 0,-0.254 0.136,-0.491 0.357,-0.619 0.22,-0.125 0.493,-0.125 0.713,0.003 z m -39.313,29.858 c -0.22,0.123 -0.49,0.12 -0.708,-0.007 -0.217,-0.128 -0.351,-0.363 -0.351,-0.617 v -18.11 c 0,-0.178 -0.096,-0.343 -0.25,-0.432 -0.153,-0.088 -0.344,-0.088 -0.498,0 l -2.956,1.703 c -0.441,0.254 -0.983,0.254 -1.425,0 L -57.307,5.582 C -57.747,5.328 -58.02,4.857 -58.02,4.351 V -9.28 c 0,-0.51 0.273,-0.978 0.713,-1.235 l 11.806,-6.817 c 0.44,-0.254 0.983,-0.254 1.426,0 l 11.805,6.82 c 0.44,0.257 0.713,0.725 0.713,1.235 v 33.969 c 0,0.518 -0.281,0.994 -0.732,1.246 z m -1.094,-34.662 c 0,-0.127 -0.068,-0.245 -0.178,-0.307 l -4.054,-2.337 c -0.11,-0.064 -0.246,-0.064 -0.356,0 l -4.054,2.337 c -0.111,0.062 -0.178,0.18 -0.178,0.307 v 4.68 c 0,0.128 0.067,0.245 0.175,0.31 L -45,2.526 c 0.111,0.064 0.248,0.064 0.359,0 l 4.054,-2.34 c 0.111,-0.065 0.179,-0.182 0.179,-0.31 z m -55.689,9.523 c 0,0.512 -0.269,0.983 -0.712,1.238 l -11.801,6.79 c -0.2,0.117 -0.423,0.179 -0.649,0.188 h -0.122 c -0.226,-0.009 -0.45,-0.071 -0.652,-0.188 l -11.801,-6.79 c -0.439,-0.256 -0.714,-0.727 -0.714,-1.239 l 0.026,-18.289 c 0,-0.254 0.131,-0.491 0.354,-0.617 0.217,-0.133 0.49,-0.133 0.708,0 l 7.016,4.018 c 0.442,0.264 0.713,0.73 0.713,1.237 v 8.544 c 0,0.51 0.27,0.982 0.711,1.235 l 2.988,1.72 c 0.221,0.128 0.465,0.192 0.713,0.192 0.244,0 0.493,-0.063 0.709,-0.192 l 2.985,-1.719 c 0.442,-0.254 0.713,-0.725 0.713,-1.235 v -8.543 c 0,-0.507 0.274,-0.975 0.715,-1.237 l 7.011,-4.015 c 0.22,-0.131 0.495,-0.131 0.713,0 0.217,0.125 0.354,0.362 0.354,0.616 z" />
    </g>
    <g
       transform="matrix(0.35277777,0,0,-0.35277777,167.34517,-58.881393)"
       id="g1171">
      <path
         id="path1173"
         style="fill:#87c540;fill-opacity:1;fill-rule:nonzero;stroke:none"
         d="m 0,0 c 0.084,0.05 0.188,0.05 0.273,0 l 2.266,-1.307 c 0.084,-0.048 0.136,-0.138 0.136,-0.236 v -2.616 c 0,-0.098 -0.052,-0.189 -0.136,-0.237 L 0.273,-5.703 c -0.085,-0.05 -0.189,-0.05 -0.273,0 l -2.264,1.307 c -0.086,0.048 -0.138,0.139 -0.138,0.237 v 2.616 c 0,0.098 0.049,0.188 0.135,0.236 z" />
    </g>
    <g
       transform="matrix(0.35277777,0,0,-0.35277777,144.36329,-63.069953)"
       id="g1175">
      <path
         id="path1177"
         style="fill:#87c540;fill-opacity:1;fill-rule:nonzero;stroke:none"
         d="m 0,0 -11.739,-6.775 c -0.44,-0.254 -0.709,-0.722 -0.709,-1.228 v -13.56 c 0,-0.506 0.269,-0.974 0.709,-1.228 L 0,-29.571 c 0.439,-0.253 0.98,-0.253 1.419,0 l 11.737,6.78 c 0.438,0.254 0.707,0.722 0.707,1.228 v 13.56 c 0,0.506 -0.269,0.974 -0.71,1.228 L 1.417,0 C 1.197,0.126 0.952,0.189 0.707,0.189 0.462,0.189 0.217,0.126 -0.004,0" />
    </g>
  </g>
</svg>
